<svg xmlns="http://www.w3.org/2000/svg" viewBox="0 0 80 80" x="0px" y="0px">
  <path d="M62.51,44.28a52.24,52.24,0,0,1,12.82-2,8.55,8.55,0,0,0,3.53-.46A2.52,2.52,0,0,0,80.42,39c-.43-1.24-2-1.61-3.31-1.52s-2.67.47-3.88,0-1.9-2.38-.79-3.07a4,4,0,0,1,1.7-.31,3.55,3.55,0,0,0,2.92-2.28,3.28,3.28,0,0,0-1-3.54c-1.71-1.38-4.36-.55-6,1s-2.6,3.55-4.17,5.1c-.12.12-.25.22-.37.33a4.21,4.21,0,0,0-.89-2.09,2.19,2.19,0,0,1-.45-1.44.45.45,0,0,1,.2-.31c.27-.18.73-.06,1.22.08a2.19,2.19,0,0,0,2.08-.13,1.38,1.38,0,0,0,.51-1,3.33,3.33,0,0,0-1-2.17c-.43-.47-1-1.37-.64-1.77s.7-.15,1.4.05a7.07,7.07,0,0,0,.84.21,2.92,2.92,0,0,0,2.46-.82,3.85,3.85,0,0,0,1.23-3.06,5.19,5.19,0,0,0-1.75-3.3,4.59,4.59,0,0,0-1-4.55,2.36,2.36,0,0,0-1.18-.7c-1.29-.24-2.29,1.08-2.82,2.28l-.2.48c-.47-.14-.95-.28-1.41-.44a7.57,7.57,0,0,1-4.08-2.65A9.47,9.47,0,0,1,59,10.26c-.08-.3-.16-.61-.24-.92A1.49,1.49,0,0,0,58.3,8C55.86,2.11,48.41.54,45.27.14a7.91,7.91,0,0,0-5,.57A3.86,3.86,0,0,0,38.5,3.25,2.72,2.72,0,0,0,39,5.47c.87,1.11,2.38,1.28,3.6,1.42a39.79,39.79,0,0,1,4.69.82c0,.47,0,1,0,1.43,0,2.66,1.22,6.22-.31,8.4-.79,1.16-1.43,2.81-2.69,3.44a3.16,3.16,0,0,1-.94.27,10.24,10.24,0,0,1-.05-2.6c0-.19,0-.38.08-.58a5.5,5.5,0,0,0-.09-2.81,2.18,2.18,0,0,0-.22-.4,6,6,0,0,0,.86-1.14,4.49,4.49,0,0,0-1.78-5.9,2.74,2.74,0,0,0-2.91.05,3.52,3.52,0,0,0-1,2.69,5.94,5.94,0,0,1-.53,2.88c-.52.84-1.84,1.27-2.5.53a1.84,1.84,0,0,1-.38-.82c-.28-1.2,0-2.47-.2-3.68S33.42,7,32.2,7.1,30.37,8.76,30.64,10a10.49,10.49,0,0,0,1.77,3.19,12.06,12.06,0,0,1,1.9,6.79A2,2,0,0,1,34,21.21a1.43,1.43,0,0,1-.62.4,2.93,2.93,0,0,0-1.2-1.23,2,2,0,0,0-1.81-.06,2,2,0,0,0-1,1.21l-.49-.18a5.72,5.72,0,0,0-.26-2.76c-.65-1.72-2.36-3-5.07-3.79a8.48,8.48,0,0,0-5-.23A4.46,4.46,0,0,0,15.83,17a6.29,6.29,0,0,0-7.06,1.94,2.76,2.76,0,0,0-.63,2,3.16,3.16,0,0,0,1.78,2c2.56,1.43,5.49,2,8.34,2.7l-.07,0a2.81,2.81,0,0,1-.48.12,2,2,0,0,0-1.2.54,1.29,1.29,0,0,0-.34,1,3.28,3.28,0,0,0,1.24,1.95,22.39,22.39,0,0,1,2.26,2.19A1.27,1.27,0,0,1,20,32a.29.29,0,0,1-.11.32,2,2,0,0,1-1.72.13c-1-.38-2.77-1.08-3.62.23-.31.48-.49,1.32.37,2.64a30.28,30.28,0,0,0,1.95,2.57c.54.66,1.1,1.35,1.59,2.05A8,8,0,0,1,20.22,45c-.12,1.63-1.29,3.43-3,3.61-1.54.15-2.93-.9-4.29-1.93l-.28-.21c-2.2-1.65-4.08-2.1-5.61-1.34a2,2,0,0,0-1,1,1.52,1.52,0,0,0,0,1.27A3.85,3.85,0,0,0,8.39,49a3,3,0,0,1,1.74,1.13.54.54,0,0,1,0,.47.56.56,0,0,1-.34.33,2.73,2.73,0,0,1-1.9-.3c-2.18-1.07-3.18-.52-3.63.12L4,51.14l.33.29c.86.77,1.71,1.6,1.7,2.59a2.21,2.21,0,0,1-.7,1.5c-.78.1-1.56.23-2.33.4a2.09,2.09,0,0,0-1.51.86,1.08,1.08,0,0,0,.06,1.08,4.69,4.69,0,0,0-.81.72A3.21,3.21,0,0,0,0,61.15a2.07,2.07,0,0,0,1,1.5l.11.06h.13c1.29,0,2.16-1,2.93-1.88l.44-.49a2.85,2.85,0,0,1,.46-.4q1.2.46,2.41.91c.17.51.44,1,1.12,1.12a1.17,1.17,0,0,0,1-.38l1.45.45a2.09,2.09,0,0,0,.59,2.22,1.39,1.39,0,0,0,1.19.21,3.17,3.17,0,0,0,1.68-1.54c.81.17,1.63.31,2.45.41a4.55,4.55,0,0,0,.14.92,2.7,2.7,0,0,0,1.38,1.69A1.69,1.69,0,0,0,20,66a3.28,3.28,0,0,0,1.15-1.06c.39-.5.6-.73.84-.68s.3.34.31,1.16a3.77,3.77,0,0,0,.29,1.7,1.63,1.63,0,0,0,.53.59,2.31,2.31,0,0,0,0,1.47c2.43,1.31,4.89-1,6.59.17,0,2.4-4.43,2.49-4.85,4.85-.24,1.34,1.16,2.53,2.52,2.56A5.91,5.91,0,0,0,31,75.09c2.88-2.33,5.14-5.35,8-7.64S46,63.65,49.41,65c.77.3,1.51.72,2.29.95.39,2,1,3.47,2.27,3.7a2.4,2.4,0,0,0,2.15-.44c1-.9.82-2.7.71-4,0-.19,0-.38,0-.55a1.34,1.34,0,0,1,0-.24A3.42,3.42,0,0,0,59,66.09a2.08,2.08,0,0,0,1.77-.72c1.92,7.44,3.5,10.7,5.16,10.75h0c1.3,0,2-1.85,2.44-3.25A8.2,8.2,0,0,0,68,68.21a9.17,9.17,0,0,1-.54-3.6,3.86,3.86,0,0,1,.82-2.21A1.53,1.53,0,0,1,69.34,62h0a.89.89,0,0,1,.65.24,2.17,2.17,0,0,1,.34,1.53,4.7,4.7,0,0,0,.18,1.58,2.55,2.55,0,0,0,4.5.28,5.07,5.07,0,0,0,.18-2.92c-.16-1.22-.23-2,.39-2.41A2.53,2.53,0,0,1,76.4,60a5.49,5.49,0,0,0,.67-.19,3.08,3.08,0,0,0,.75-5.13c-1.16-.87-2.65-.72-4-.59l-.95.08a3.49,3.49,0,0,1-2.57-.84,1.12,1.12,0,0,1-.34-.94c.08-.78,1-1.32,1.84-1.5.36-.08.74-.12,1.11-.16A7.32,7.32,0,0,0,75,50.26a3,3,0,0,0,1.6-1.63,1.89,1.89,0,0,0-.05-1.53,2.62,2.62,0,0,0-1-1c-2.85-1.83-6.51-.74-9,.24l-.7.28c-2.51,1-5.1,2-7.59,1.41a2.5,2.5,0,0,1-1.42-.78,1.61,1.61,0,0,1-.19-.37,7.87,7.87,0,0,1,.75-.59A17,17,0,0,1,62.51,44.28Zm-3.15-7.21a3.85,3.85,0,0,1,2.54-.82l.61.06.33,0A9.6,9.6,0,0,1,59.36,37.07ZM57.69,15.54c-1-.85-2.45.21-3.15,1.3S53,19.32,51.73,19.21s-2-1.93-1.68-3.3a5.57,5.57,0,0,1,.52-1.45,5.62,5.62,0,0,0,1.34.18,14.87,14.87,0,0,0,2.35-.24c.56-.09,1.08-.18,1.62-.21a3.88,3.88,0,0,1,3.21,1,1.89,1.89,0,0,1,.31,1.68,1.17,1.17,0,0,1-.73.82,1.8,1.8,0,0,1-.74,0C58.19,16.88,58.33,16.09,57.69,15.54ZM50.63,9a1.25,1.25,0,0,1-.17-.3A.65.65,0,0,1,50.7,9s0,.06,0,.09ZM40.45,20a2.65,2.65,0,0,1,.07-2c.35.59.7,1.5.21,1.88A.61.61,0,0,1,40.45,20ZM27.91,66a7.65,7.65,0,0,1-1.45-.32,3.65,3.65,0,0,0-.24-1.54,5.63,5.63,0,0,0-.56-1.06,4.48,4.48,0,0,1,3.21,1,1.33,1.33,0,0,1,.51.87C29.42,65.58,28.61,66,27.91,66ZM58,49c2.79.69,5.54-.4,8.19-1.45l.7-.28c3.66-1.43,6.24-1.53,8.13-.33a1.65,1.65,0,0,1,.63.61.92.92,0,0,1,0,.75,2,2,0,0,1-1.06,1.07,6.5,6.5,0,0,1-1.79.37c-.4,0-.81.09-1.21.18A3.07,3.07,0,0,0,69,52.26a2.11,2.11,0,0,0,.6,1.72A4.49,4.49,0,0,0,73,55.13L74,55c1.25-.13,2.43-.24,3.28.39a2.11,2.11,0,0,1-.5,3.42,4.54,4.54,0,0,1-.55.15,3.36,3.36,0,0,0-1.16.43c-1.15.78-1,2.14-.81,3.35a4.32,4.32,0,0,1-.09,2.35A1.58,1.58,0,0,1,71.44,65a3.92,3.92,0,0,1-.13-1.25,3,3,0,0,0-.62-2.22A1.87,1.87,0,0,0,69.34,61h0a2.51,2.51,0,0,0-1.77.76,4.8,4.8,0,0,0-1.09,2.76,10.07,10.07,0,0,0,.57,4,7.37,7.37,0,0,1,.4,4.1c-.57,1.88-1.15,2.55-1.5,2.55h0c-.71,0-2.31-1.74-5-13l-.12-.49c-.36-1.51-1.09-1.8-1.61-1.8l-.21,0c-1.59.24-3.34,3.39-3.24,4.8,0,.18,0,.36,0,.57.1,1.11.23,2.64-.39,3.21a1.48,1.48,0,0,1-1.31.2c-1.3-.24-1.69-4-2-6.93-.3-2.83-.58-5.5-1.55-6.61-.64-.74-1.2-.75-1.56-.64-1.36.44-1.76,3.61-1.85,4.58v.12a2.58,2.58,0,0,1-.95,2.58,1.51,1.51,0,0,1-1.39,0,1,1,0,0,1-.61-.75,3.63,3.63,0,0,1,0-.42c0-.51,0-1.21-.67-1.53-.85-.42-1.43.36-1.81.87a4.42,4.42,0,0,1-.36.44,1,1,0,0,1-1.55-.91A2.69,2.69,0,0,1,40.1,59a2.15,2.15,0,0,0,.4-1.29,2.12,2.12,0,0,0-.95-1.41,16.49,16.49,0,0,0-8.07-3.4c-1.21-.15-2.09.24-2.29,1a2,2,0,0,0,.19,1.23,1.11,1.11,0,0,1,.14.62.17.17,0,0,1-.13.13,1.82,1.82,0,0,1-1.29-.38A2.88,2.88,0,0,0,26,54.89a1.19,1.19,0,0,0-.8.64,2,2,0,0,0,.17,1.71c.17.41.27.69.17.81s-.29,0-.89-.33a2.57,2.57,0,0,0-1.92-.57l-.26.07-.09.26c-.46,1.37,0,2.93,1.47,4.75l.22.27a7.72,7.72,0,0,1,1.28,2,2.17,2.17,0,0,1-.22,2.18,1.22,1.22,0,0,1-1,.34.78.78,0,0,1-.61-.38,3.06,3.06,0,0,1-.18-1.26c0-.78,0-1.85-1.07-2.1-.89-.21-1.42.48-1.85,1a2.57,2.57,0,0,1-.78.77A.71.71,0,0,1,19,65,1.73,1.73,0,0,1,18.11,64,5.77,5.77,0,0,1,18,62.42a9.53,9.53,0,0,0,0-1.27c-.14-1.19-1-2.46-2.21-2.46h-.32l-1.55,3.43a2.56,2.56,0,0,1-1.24,1.39.4.4,0,0,1-.36-.06c-.35-.24-.26-.88-.11-1.68l0-.11a2.47,2.47,0,0,0-.5-2,1.19,1.19,0,0,0-1.05-.36,2,2,0,0,0-1.3,1.13c-.23.37-.41.62-.55.6s-.24-.23-.38-.75A3.75,3.75,0,0,0,8,59.29a1.69,1.69,0,0,0-1.33-.81A3.62,3.62,0,0,0,4,59.66l-.46.52c-.65.75-1.27,1.46-2.05,1.53A1.14,1.14,0,0,1,1,61a2.22,2.22,0,0,1,.49-1.75,6.7,6.7,0,0,1,2.2-1.46c.29-.14.58-.29.87-.44C5.5,56.82,7,55.72,7,54a4.19,4.19,0,0,0-1.6-2.94,3.31,3.31,0,0,1,2,.45,3.65,3.65,0,0,0,2.68.33A1.56,1.56,0,0,0,11,49.73a3.85,3.85,0,0,0-2.35-1.64,3,3,0,0,1-1.74-1.13.53.53,0,0,1,0-.47A1,1,0,0,1,7.44,46c1.45-.72,3.29.28,4.58,1.24l.28.21c1.44,1.09,3.07,2.33,5,2.13,2.27-.23,3.78-2.48,3.92-4.52a9,9,0,0,0-1.93-5.71c-.51-.73-1.09-1.44-1.64-2.11a29.54,29.54,0,0,1-1.89-2.49c-.26-.4-.65-1.13-.37-1.57s1.38-.25,2.43.16a3,3,0,0,0,2.71-.29A1.27,1.27,0,0,0,21,31.79a2.07,2.07,0,0,0-.56-1,23.44,23.44,0,0,0-2.36-2.29,2.35,2.35,0,0,1-.89-1.26.31.31,0,0,1,.09-.25,1.25,1.25,0,0,1,.66-.24,3.78,3.78,0,0,0,.65-.17,2,2,0,0,0,1.21-1.37A4,4,0,0,0,19,22c-.27-.35-.58-.68-.88-1a4.92,4.92,0,0,1-1.54-2.44,3,3,0,0,1,2.23-3,7.59,7.59,0,0,1,4.39.24c2.4.7,3.89,1.77,4.43,3.19s.09,3.16-.35,4.83c-.56,2.1-1.14,4.28.25,6l.36.46.39-.43a7.37,7.37,0,0,0,1.87-5.22l0-.54c-.09-1.44-.1-2.49.66-2.86a1,1,0,0,1,.92.05,2,2,0,0,1,1,1.38,6,6,0,0,1-.62,2.92l-.15.39A17.77,17.77,0,0,0,31.23,37c.64,2.23,2.33,4.87,5,5a5.51,5.51,0,0,0,2.68-.68,9.73,9.73,0,0,0,5-10.13c-.69-3.74-3.45-6.53-6.12-9.22l-1.07-1.08c-.37-.39-.79-.93-.63-1.3a.39.39,0,0,1,.29-.24,2.22,2.22,0,0,1,1.6.52c.64.51,2.15,1.69,3.34.77s.58-2.39-.17-3.47c-.51-.73-1-1.71-.57-2.22a.64.64,0,0,1,.63-.18,1.49,1.49,0,0,1,1.06.86,4.71,4.71,0,0,1,0,2.32c0,.2-.06.4-.08.6a11.25,11.25,0,0,0,.51,4.82,2.37,2.37,0,0,0,1,1.43,1.47,1.47,0,0,0,1.48,0,3.35,3.35,0,0,0,1.36-2.67v-.26c0-1.08,0-2.31.8-2.65a.84.84,0,0,1,.87.12,2.51,2.51,0,0,1,.92,2,9.4,9.4,0,0,1-.3,1.63,6.69,6.69,0,0,0-.28,2.77c.38,2.19,2.45,3.4,4.64,4.38a2.36,2.36,0,0,0,1.15.27,2.08,2.08,0,0,0,1.19-.62,5.74,5.74,0,0,0,1.57-5.17,5.81,5.81,0,0,0-2.86-4.24,2.07,2.07,0,0,1,.55-1.17,2,2,0,0,1,1.4-.67,5.36,5.36,0,0,1,.91.11,3.61,3.61,0,0,0,1.76,0,2.12,2.12,0,0,0,1.38-1.48,2.87,2.87,0,0,0-.5-2.59,4.83,4.83,0,0,0-4-1.36c-.58,0-1.16.13-1.71.22a11.87,11.87,0,0,1-2.19.23,3.29,3.29,0,0,1-2.86-1.34c0-.46.61-.86,1.2-1.29.8-.57,1.79-1.28,1.37-2.41A2.26,2.26,0,0,0,50,7.41a40.78,40.78,0,0,0-7.3-1.5c-1.09-.12-2.32-.26-2.93-1a1.74,1.74,0,0,1-.29-1.43A2.89,2.89,0,0,1,40.8,1.56a7,7,0,0,1,4.34-.45c3,.38,10.24,1.89,12.36,7.55A18.06,18.06,0,0,1,58,10.51a10.39,10.39,0,0,0,1.3,3.38,8.48,8.48,0,0,0,4.58,3c.49.17,1,.31,1.48.46a17.6,17.6,0,0,1,3.4,1.27,4.89,4.89,0,0,1,2.8,3.64,2.88,2.88,0,0,1-.92,2.25,2,2,0,0,1-1.64.57,6.13,6.13,0,0,1-.72-.18c-.75-.22-1.69-.49-2.37.2s-.49,1.9.62,3.13a2.35,2.35,0,0,1,.7,1.43.39.39,0,0,1-.15.3c-.23.19-.61.1-1.2-.06a2.35,2.35,0,0,0-2,.05,1.44,1.44,0,0,0-.62.95,3.16,3.16,0,0,0,.6,2.18c.46.68.93,1.45.63,1.94s-.92.4-1.88.28L62,35.27c-2.35-.16-4.31,1.62-5.22,3.44a16.06,16.06,0,0,0-1.25,6.07,4.38,4.38,0,0,0,.57,3A3.43,3.43,0,0,0,58,49Z"/>
</svg>